<svg version="1.2" xmlns="http://www.w3.org/2000/svg" viewBox="0 0 26 26" width="26" height="26">
	<title>facebook-svg</title>
	<defs>
		<linearGradient id="g1" x1="12.5" y1="24.4" x2="13" y2="2.3" gradientUnits="userSpaceOnUse">
			<stop offset="0" stop-color="#004dae"/>
			<stop offset=".9" stop-color="#4497ff"/>
		</linearGradient>
		<filter x="-50%" y="-50%" width="200%" height="200%" id="f1"> <feGaussianBlur stdDeviation="1"/> </filter>
		<linearGradient id="g2" x1="13" y1="3.9" x2="13" y2="22.1" gradientUnits="userSpaceOnUse">
			<stop offset="0" stop-color="#1778f2"/>
			<stop offset="1" stop-color="#1778f2" stop-opacity=".6"/>
		</linearGradient>
		<linearGradient id="g3" x1="13" y1="1.3" x2="13" y2="24.7" gradientUnits="userSpaceOnUse">
			<stop offset="0" stop-color="#7cb4fb"/>
			<stop offset="1" stop-color="#0b6280"/>
		</linearGradient>
		<filter x="-50%" y="-50%" width="200%" height="200%" id="f2"> <feGaussianBlur stdDeviation="2.5"/> </filter>
		<clipPath clipPathUnits="userSpaceOnUse" id="cp1">
			<path d="m15.25 9.32v2h3.32l-0.39 3.35h-2.93v10.05 0.07c-1.14 0.3-3.4 0.24-4.31 0.03v-0.44-9.71h-2.34v-3.35h2.34v-2.24c0-2.82 1.17-4.46 4.73-4.46h2.9v3.35h-1.74c-1.39 0-1.58 0.45-1.58 1.35z"/>
		</clipPath>
		<linearGradient id="g4" x1="13.6" y1="4.6" x2="13.6" y2="25" gradientUnits="userSpaceOnUse">
			<stop offset="0" stop-color="#ffffff"/>
			<stop offset="1" stop-color="#ffffff" stop-opacity="0"/>
		</linearGradient>
	</defs>
	<style>
		.s0 { fill: url(#g1) } 
		.s1 { filter: url(#f1);fill: url(#g2) } 
		.s2 { filter: url(#f1);fill: none;stroke: url(#g3);stroke-width: .5 } 
		.s3 { opacity: .5;filter: url(#f2);fill: #13488c } 
		.s4 { fill: #ffffff } 
		.s5 { fill: url(#g4) } 
	</style>
	<g id="Layer">
		<path id="Layer" class="s0" d="m1 13c0-6.6 5.4-12 12-12 6.6 0 12 5.4 12 12 0 6.6-5.4 12-12 12-6.6 0-12-5.4-12-12z"/>
		<g id="Layer">
			<path id="Layer" class="s1" d="m1.3 13c0-6.5 5.2-11.7 11.7-11.7 6.5 0 11.7 5.2 11.7 11.7 0 6.5-5.2 11.7-11.7 11.7-6.5 0-11.7-5.2-11.7-11.7z"/>
			<path id="Layer" class="s2" d="m1.6 13c0-6.3 5.1-11.4 11.4-11.4 6.3 0 11.4 5.1 11.4 11.4 0 6.3-5.1 11.4-11.4 11.4-6.3 0-11.4-5.1-11.4-11.4z"/>
		</g>
		<g id="Layer">
			<path id="Layer" class="s3" d="m17.9 11.3l-0.4 3.2h-3.1v9.6h-4.6v-9.6h-2.4v-3.2h2.4v-2.1c0-2.7 1.3-4.3 5.1-4.3h3v3.2h-1.8c-1.5 0-1.7 0.5-1.7 1.3v1.9z"/>
		</g>
		<path id="Layer" fill-rule="evenodd" class="s4" d="m15.2 9.3v2h3.4l-0.4 3.4h-3v10 0.1c-1.1 0.3-3.3 0.2-4.3 0v-0.4-9.7h-2.3v-3.4h2.3v-2.2c0-2.8 1.2-4.5 4.8-4.5h2.9v3.4h-1.8c-1.4 0-1.6 0.4-1.6 1.3z"/>
		<g id="Clip-Path" clip-path="url(#cp1)">
			<path id="Layer" fill-rule="evenodd" class="s5" d="m18 11.8l-0.3 2.4h-3v10 0.2c-0.4 0.1-1.1 0.1-1.7 0.1-0.6 0-1.1 0-1.6-0.1q0 0-0.1 0h0.1v-10.2h-2.3v-2.4h2.3v-2.7c0-1.4 0.3-2.3 0.9-3 0.6-0.6 1.7-1 3.4-1h2.4v2.4h-1.3c-0.7 0-1.3 0.1-1.6 0.5-0.4 0.3-0.5 0.9-0.5 1.3v2.5zm-2.2-1h3.4l-0.1 0.6-0.5-0.1 0.5 0.1-0.4 3.3v0.5h-2.9v10h-0.2l-0.2 0.1c-0.6 0.1-1.5 0.2-2.4 0.2-0.8 0-1.6-0.1-2.1-0.2l-0.4-0.1v-0.8h0.5v-0.5h-0.5v-8.7h-2.4v-4.4h2.4v-1.7c0-1.5 0.3-2.8 1.1-3.7q1.3-1.3 4.1-1.3h3.4v4.4h-2.2c-0.7 0-0.9 0.1-1 0.2-0.1 0-0.1 0.2-0.1 0.6zm-4.8 13.6v0.4l0.1-0.4zm0 0.5h0.5v-0.1h-0.5zm0 0v-1z"/>
		</g>
	</g>
</svg>